<svg xmlns="http://www.w3.org/2000/svg" xmlns:xlink="http://www.w3.org/1999/xlink" id="Layer_1" viewBox="422.5 0 161.7 179.5">
<defs>
<circle id="a" r="7.5" fill="#6DAB49"/>
<circle id="b" r="7.5" fill="#DA0F21"/>
</defs>
<use xlink:href="#a" transform="translate(467 28.1)"/>
<use xlink:href="#a" transform="translate(467 48.7)"/>
<use xlink:href="#a" transform="translate(467 69.2)"/>
<use xlink:href="#a" transform="translate(467 89.7)"/>
<use xlink:href="#a" transform="translate(467 130.9)"/>
<use xlink:href="#a" transform="translate(467 151.5)"/>
<use xlink:href="#a" transform="translate(430 48.6)"/>
<use xlink:href="#a" transform="translate(430 69.3)"/>
<use xlink:href="#a" transform="translate(430 89.7)"/>
<use xlink:href="#a" transform="translate(430 110.3)"/>
<use xlink:href="#a" transform="translate(430 130.8)"/>
<use xlink:href="#a" transform="translate(449 38.4)"/>
<use xlink:href="#a" transform="translate(449 59)"/>
<use xlink:href="#a" transform="translate(449 79.5)"/>
<use xlink:href="#a" transform="translate(449 100)"/>
<use xlink:href="#a" transform="translate(449 120.5)"/>
<use xlink:href="#a" transform="translate(449 141)"/>
<use xlink:href="#a" transform="translate(576.7 48.6)"/>
<use xlink:href="#a" transform="translate(576.7 69)"/>
<use xlink:href="#a" transform="translate(576.7 89.7)"/>
<use xlink:href="#a" transform="translate(576.7 110)"/>
<use xlink:href="#a" transform="translate(576.7 131)"/>
<use xlink:href="#a" transform="translate(558 38.4)"/>
<use xlink:href="#a" transform="translate(558 59)"/>
<use xlink:href="#a" transform="translate(558 79.5)"/>
<use xlink:href="#a" transform="translate(558 100)"/>
<use xlink:href="#a" transform="translate(558 120.5)"/>
<use xlink:href="#a" transform="translate(558 141)"/>
<use xlink:href="#a" transform="translate(540 28)"/>
<use xlink:href="#a" transform="translate(540 48.7)"/>
<use xlink:href="#a" transform="translate(540 69)"/>
<use xlink:href="#a" transform="translate(540 89.7)"/>
<use xlink:href="#a" transform="translate(540 110)"/>
<use xlink:href="#a" transform="translate(540 131)"/>
<use xlink:href="#a" transform="translate(540 151.5)"/>
<use xlink:href="#b" transform="translate(467 110)"/>
<use xlink:href="#a" transform="translate(522 18)"/>
<use xlink:href="#a" transform="translate(522 38)"/>
<use xlink:href="#a" transform="translate(522 59)"/>
<use xlink:href="#a" transform="translate(522 79)"/>
<use xlink:href="#a" transform="translate(522 100)"/>
<use xlink:href="#a" transform="translate(522 120.5)"/>
<use xlink:href="#a" transform="translate(522 141)"/>
<use xlink:href="#a" transform="translate(522 161.6)"/>
<use xlink:href="#a" transform="translate(503.5 7.5)"/>
<use xlink:href="#a" transform="translate(503.5 28)"/>
<use xlink:href="#a" transform="translate(503.5 48.6)"/>
<use xlink:href="#a" transform="translate(503.5 69)"/>
<use xlink:href="#a" transform="translate(503.5 90)"/>
<use xlink:href="#a" transform="translate(503.5 110.3)"/>
<use xlink:href="#a" transform="translate(503.5 131)"/>
<use xlink:href="#a" transform="translate(503.5 151.4)"/>
<use xlink:href="#a" transform="translate(485 17.7)"/>
<use xlink:href="#a" transform="translate(485 38.3)"/>
<use xlink:href="#a" transform="translate(485 58.8)"/>
<use xlink:href="#a" transform="translate(485 79.4)"/>
<use xlink:href="#a" transform="translate(485 100)"/>
<use xlink:href="#a" transform="translate(485 120.5)"/>
<use xlink:href="#a" transform="translate(485 141)"/>
<use xlink:href="#a" transform="translate(485 161.6)"/>
<use xlink:href="#a" transform="translate(503.5 172)"/>
</svg>