<?xml version="1.0" encoding="utf-8"?>
<!-- Generator: Adobe Illustrator 22.1.0, SVG Export Plug-In . SVG Version: 6.00 Build 0)  -->
<svg version="1.1" id="Layer_1" xmlns="http://www.w3.org/2000/svg" xmlns:xlink="http://www.w3.org/1999/xlink" x="0px" y="0px"
	 viewBox="0 0 35.1 17" style="enable-background:new 0 0 35.1 17;" xml:space="preserve">
<style type="text/css">
	.st0{fill:#63B155;}
	.st1{fill:#E11B2D;}
</style>
<circle class="st0" cx="26.6" cy="11.4" r="1.1"/>
<circle class="st0" cx="26.6" cy="14.3" r="1.1"/>
<circle class="st0" cx="26.6" cy="8.4" r="1.1"/>
<circle class="st0" cx="26.6" cy="5.6" r="1.1"/>
<circle class="st0" cx="26.6" cy="2.6" r="1.1"/>
<circle class="st0" cx="29.2" cy="13" r="1.1"/>
<circle class="st0" cx="29.2" cy="10" r="1.1"/>
<circle class="st0" cx="29.2" cy="7.1" r="1.1"/>
<circle class="st0" cx="29.2" cy="4.2" r="1.1"/>
<circle class="st0" cx="31.8" cy="11.4" r="1.1"/>
<circle class="st0" cx="31.8" cy="8.6" r="1.1"/>
<circle class="st0" cx="31.8" cy="5.6" r="1.1"/>
<circle class="st0" cx="21.4" cy="11.4" r="1.1"/>
<circle class="st0" cx="21.4" cy="8.4" r="1.1"/>
<circle class="st0" cx="21.4" cy="5.6" r="1.1"/>
<circle class="st0" cx="24" cy="13" r="1.1"/>
<circle class="st1" cx="24" cy="10" r="1.1"/>
<circle class="st0" cx="24" cy="7.1" r="1.1"/>
<circle class="st0" cx="24" cy="4.2" r="1.1"/>
<g>
	<path d="M0.2,6h3.4v0.7H1V8h2.4v0.7H1V10h2.6v0.7H0.2V6z"/>
	<path d="M4.3,6h1.2l1.3,3.7h0L8,6h1.1v4.7H8.4V7.1h0l-1.3,3.6H6.4L5.1,7.1h0v3.6H4.3V6z"/>
	<path d="M10.2,6h2.3c0.4,0,0.8,0.1,1,0.3c0.3,0.2,0.4,0.5,0.4,0.9c0,0.2-0.1,0.4-0.2,0.6c-0.1,0.2-0.3,0.3-0.5,0.4v0
		c0.3,0.1,0.5,0.2,0.7,0.4C14,8.8,14,9.1,14,9.4c0,0.2,0,0.4-0.1,0.5c-0.1,0.2-0.2,0.3-0.3,0.4c-0.1,0.1-0.3,0.2-0.5,0.3
		c-0.2,0.1-0.5,0.1-0.8,0.1h-2.1V6z M11,8h1.3c0.2,0,0.4-0.1,0.5-0.2C12.9,7.7,13,7.5,13,7.3c0-0.2-0.1-0.4-0.2-0.5
		c-0.1-0.1-0.3-0.1-0.5-0.1H11V8z M11,10h1.4c0.2,0,0.4-0.1,0.6-0.2c0.1-0.1,0.2-0.3,0.2-0.5c0-0.2-0.1-0.4-0.2-0.5
		c-0.1-0.1-0.3-0.2-0.6-0.2H11V10z"/>
	<path d="M14.8,6h0.8v4H18v0.7h-3.2V6z"/>
</g>
</svg>
