<?xml version="1.0" encoding="utf-8"?>
<!-- Generator: Adobe Illustrator 22.1.0, SVG Export Plug-In . SVG Version: 6.00 Build 0)  -->
<svg version="1.1" id="Layer_1" xmlns="http://www.w3.org/2000/svg" xmlns:xlink="http://www.w3.org/1999/xlink" x="0px" y="0px"
	 viewBox="0 0 35.3 17" style="enable-background:new 0 0 35.3 17;" xml:space="preserve">
<style type="text/css">
	.st0{fill:#63B155;}
	.st1{fill:#E11B2D;}
</style>
<circle class="st0" cx="32.2" cy="11.6" r="0.8"/>
<circle class="st0" cx="30.4" cy="12.6" r="0.8"/>
<circle class="st0" cx="32.2" cy="9.5" r="0.8"/>
<circle class="st0" cx="30.4" cy="10.5" r="0.8"/>
<circle class="st0" cx="32.2" cy="7.5" r="0.8"/>
<circle class="st0" cx="30.4" cy="8.5" r="0.8"/>
<circle class="st0" cx="32.2" cy="5.4" r="0.8"/>
<circle class="st0" cx="30.4" cy="6.4" r="0.8"/>
<circle class="st0" cx="30.4" cy="4.4" r="0.8"/>
<circle class="st0" cx="28.5" cy="13.7" r="0.8"/>
<circle class="st0" cx="28.5" cy="11.6" r="0.8"/>
<circle class="st0" cx="26.7" cy="12.6" r="0.8"/>
<circle class="st0" cx="26.7" cy="14.7" r="0.8"/>
<circle class="st0" cx="28.5" cy="9.5" r="0.8"/>
<circle class="st0" cx="26.7" cy="10.5" r="0.8"/>
<circle class="st0" cx="28.5" cy="7.5" r="0.8"/>
<circle class="st0" cx="26.7" cy="8.5" r="0.8"/>
<circle class="st0" cx="28.5" cy="5.4" r="0.8"/>
<circle class="st0" cx="26.7" cy="6.4" r="0.8"/>
<circle class="st0" cx="28.5" cy="3.4" r="0.8"/>
<circle class="st0" cx="26.7" cy="4.4" r="0.8"/>
<circle class="st0" cx="26.7" cy="2.4" r="0.8"/>
<circle class="st0" cx="21.3" cy="11.5" r="0.8"/>
<circle class="st0" cx="21.3" cy="9.5" r="0.8"/>
<circle class="st0" cx="21.3" cy="7.4" r="0.8"/>
<circle class="st0" cx="21.3" cy="5.4" r="0.8"/>
<circle class="st0" cx="24.9" cy="13.7" r="0.8"/>
<circle class="st0" cx="24.9" cy="11.6" r="0.8"/>
<circle class="st0" cx="23.1" cy="12.6" r="0.8"/>
<circle class="st0" cx="24.9" cy="9.5" r="0.8"/>
<circle class="st1" cx="23.1" cy="10.5" r="0.8"/>
<circle class="st0" cx="24.9" cy="7.5" r="0.8"/>
<circle class="st0" cx="23.1" cy="8.5" r="0.8"/>
<circle class="st0" cx="24.9" cy="5.4" r="0.8"/>
<circle class="st0" cx="23.1" cy="6.4" r="0.8"/>
<circle class="st0" cx="24.9" cy="3.4" r="0.8"/>
<circle class="st0" cx="23.1" cy="4.4" r="0.8"/>
<g>
	<path d="M0.3,6.2h3.4v0.7H1.1v1.2h2.4v0.7H1.1v1.4h2.6v0.7H0.3V6.2z"/>
	<path d="M4.4,6.2h1.2l1.3,3.7h0l1.3-3.7h1.1v4.7H8.5V7.2h0l-1.3,3.6H6.5L5.2,7.2h0v3.6H4.4V6.2z"/>
	<path d="M10.2,6.2h2.3c0.4,0,0.8,0.1,1,0.3c0.3,0.2,0.4,0.5,0.4,0.9c0,0.2-0.1,0.4-0.2,0.6c-0.1,0.2-0.3,0.3-0.5,0.4v0
		c0.3,0.1,0.5,0.2,0.7,0.4C14,9,14.1,9.2,14.1,9.5c0,0.2,0,0.4-0.1,0.5c-0.1,0.2-0.2,0.3-0.3,0.4c-0.1,0.1-0.3,0.2-0.5,0.3
		c-0.2,0.1-0.5,0.1-0.8,0.1h-2.1V6.2z M11.1,8.1h1.3c0.2,0,0.4-0.1,0.5-0.2c0.1-0.1,0.2-0.3,0.2-0.5c0-0.2-0.1-0.4-0.2-0.5
		c-0.1-0.1-0.3-0.1-0.5-0.1h-1.3V8.1z M11.1,10.2h1.4c0.2,0,0.4-0.1,0.6-0.2c0.1-0.1,0.2-0.3,0.2-0.5c0-0.2-0.1-0.4-0.2-0.5
		c-0.1-0.1-0.3-0.2-0.6-0.2h-1.4V10.2z"/>
	<path d="M14.9,6.2h0.8v4h2.4v0.7h-3.2V6.2z"/>
</g>
</svg>
