<svg width="163" height="180" xmlns="http://www.w3.org/2000/svg"><g fill-rule="nonzero" fill="none"><circle cx="8" cy="8" r="7.5" transform="translate(37 20.1)" fill="#6DAB49"/><circle cx="8" cy="8" r="7.5" transform="translate(37 40.7)" fill="#6DAB49"/><circle cx="8" cy="8" r="7.5" transform="translate(37 61.2)" fill="#6DAB49"/><circle cx="8" cy="8" r="7.5" transform="translate(37 81.7)" fill="#6DAB49"/><circle cx="8" cy="8" r="7.5" transform="translate(37 122.9)" fill="#6DAB49"/><circle cx="8" cy="8" r="7.5" transform="translate(37 143.5)" fill="#6DAB49"/><circle cx="8" cy="8" r="7.5" transform="translate(0 40.6)" fill="#6DAB49"/><circle cx="8" cy="8" r="7.5" transform="translate(0 61.3)" fill="#6DAB49"/><circle cx="8" cy="8" r="7.5" transform="translate(0 81.7)" fill="#6DAB49"/><circle cx="8" cy="8" r="7.5" transform="translate(0 102.3)" fill="#6DAB49"/><circle cx="8" cy="8" r="7.5" transform="translate(0 122.8)" fill="#6DAB49"/><circle cx="8" cy="8" r="7.5" transform="translate(19 30.4)" fill="#6DAB49"/><circle cx="8" cy="8" r="7.5" transform="translate(19 51)" fill="#6DAB49"/><circle cx="8" cy="8" r="7.5" transform="translate(19 71.5)" fill="#6DAB49"/><circle cx="8" cy="8" r="7.5" transform="translate(19 92)" fill="#6DAB49"/><circle cx="8" cy="8" r="7.5" transform="translate(19 112.5)" fill="#6DAB49"/><circle cx="8" cy="8" r="7.5" transform="translate(19 133)" fill="#6DAB49"/><circle cx="8" cy="8" r="7.5" transform="translate(146.7 40.6)" fill="#6DAB49"/><circle cx="8" cy="8" r="7.5" transform="translate(146.7 61)" fill="#6DAB49"/><circle cx="8" cy="8" r="7.5" transform="translate(146.7 81.7)" fill="#6DAB49"/><circle cx="8" cy="8" r="7.5" transform="translate(146.7 102)" fill="#6DAB49"/><circle cx="8" cy="8" r="7.5" transform="translate(146.7 123)" fill="#6DAB49"/><circle cx="8" cy="8" r="7.5" transform="translate(128 30.4)" fill="#6DAB49"/><circle cx="8" cy="8" r="7.5" transform="translate(128 51)" fill="#6DAB49"/><circle cx="8" cy="8" r="7.5" transform="translate(128 71.5)" fill="#6DAB49"/><circle cx="8" cy="8" r="7.5" transform="translate(128 92)" fill="#6DAB49"/><circle cx="8" cy="8" r="7.5" transform="translate(128 112.5)" fill="#6DAB49"/><circle cx="8" cy="8" r="7.5" transform="translate(128 133)" fill="#6DAB49"/><circle cx="8" cy="8" r="7.5" transform="translate(110 20)" fill="#6DAB49"/><circle cx="8" cy="8" r="7.5" transform="translate(110 40.7)" fill="#6DAB49"/><circle cx="8" cy="8" r="7.5" transform="translate(110 61)" fill="#6DAB49"/><circle cx="8" cy="8" r="7.5" transform="translate(110 81.7)" fill="#6DAB49"/><circle cx="8" cy="8" r="7.5" transform="translate(110 102)" fill="#6DAB49"/><circle cx="8" cy="8" r="7.5" transform="translate(110 123)" fill="#6DAB49"/><circle cx="8" cy="8" r="7.5" transform="translate(110 143.5)" fill="#6DAB49"/><circle cx="8" cy="8" r="7.5" transform="translate(37 102)" fill="#DA0F21"/><circle cx="8" cy="8" r="7.5" transform="translate(92 10)" fill="#6DAB49"/><circle cx="8" cy="8" r="7.5" transform="translate(92 30)" fill="#6DAB49"/><circle cx="8" cy="8" r="7.5" transform="translate(92 51)" fill="#6DAB49"/><circle cx="8" cy="8" r="7.5" transform="translate(92 71)" fill="#6DAB49"/><circle cx="8" cy="8" r="7.5" transform="translate(92 92)" fill="#6DAB49"/><circle cx="8" cy="8" r="7.5" transform="translate(92 112.5)" fill="#6DAB49"/><circle cx="8" cy="8" r="7.5" transform="translate(92 133)" fill="#6DAB49"/><circle cx="8" cy="8" r="7.5" transform="translate(92 153.6)" fill="#6DAB49"/><circle cx="8" cy="8" r="7.5" transform="translate(73.5 -.5)" fill="#6DAB49"/><circle cx="8" cy="8" r="7.5" transform="translate(73.5 20)" fill="#6DAB49"/><circle cx="8" cy="8" r="7.5" transform="translate(73.5 40.6)" fill="#6DAB49"/><circle cx="8" cy="8" r="7.5" transform="translate(73.5 61)" fill="#6DAB49"/><circle cx="8" cy="8" r="7.5" transform="translate(73.5 82)" fill="#6DAB49"/><circle cx="8" cy="8" r="7.5" transform="translate(73.5 102.3)" fill="#6DAB49"/><circle cx="8" cy="8" r="7.5" transform="translate(73.5 123)" fill="#6DAB49"/><circle cx="8" cy="8" r="7.5" transform="translate(73.5 143.4)" fill="#6DAB49"/><circle cx="8" cy="8" r="7.5" transform="translate(55 9.7)" fill="#6DAB49"/><circle cx="8" cy="8" r="7.5" transform="translate(55 30.3)" fill="#6DAB49"/><circle cx="8" cy="8" r="7.5" transform="translate(55 50.8)" fill="#6DAB49"/><circle cx="8" cy="8" r="7.5" transform="translate(55 71.4)" fill="#6DAB49"/><circle cx="8" cy="8" r="7.5" transform="translate(55 92)" fill="#6DAB49"/><circle cx="8" cy="8" r="7.5" transform="translate(55 112.5)" fill="#6DAB49"/><circle cx="8" cy="8" r="7.5" transform="translate(55 133)" fill="#6DAB49"/><circle cx="8" cy="8" r="7.5" transform="translate(55 153.6)" fill="#6DAB49"/><circle cx="8" cy="8" r="7.5" transform="translate(73.5 164)" fill="#6DAB49"/></g></svg>
