<?xml version="1.0" encoding="utf-8"?>
<!-- Generator: Adobe Illustrator 22.1.0, SVG Export Plug-In . SVG Version: 6.00 Build 0)  -->
<svg version="1.1" id="Layer_1" xmlns="http://www.w3.org/2000/svg" xmlns:xlink="http://www.w3.org/1999/xlink" x="0px" y="0px"
	 viewBox="0 0 418.5 179.5" style="enable-background:new 0 0 418.5 179.5;" xml:space="preserve">
<style type="text/css">
	.st0{fill:#3E3E3E;}
	.st1{fill:#FFFFFF;stroke:#000000;stroke-width:7;stroke-miterlimit:10;}
</style>
<g>
	<path class="st0" d="M185.5,16.9c-1.3-0.1-2.5,0-3.8,0.1c-0.4,0-0.8-0.1-1.2-0.1c-1.2,0-2.4,0-3.6,0.1c-0.4,0-0.9-0.1-1.3-0.1
		c-1.2,0-2.4,0-3.5,0.1c-0.5,0-0.9-0.1-1.4-0.1c-1.1,0-2.3,0-3.4,0.1c-0.5,0-1-0.1-1.6-0.1c-1.1,0-2.2,0-3.3,0.1
		c-0.6,0-1.1-0.1-1.7-0.1c-1.1,0-2.1,0-3.1,0.1c-0.6,0-1.2-0.1-1.8-0.1c-1,0-2,0-3,0.1c-0.6,0-1.3-0.1-1.9-0.1c-1,0-1.9,0-2.9,0.1
		c-0.7-0.1-1.4-0.1-2-0.1c-0.9,0-1.9,0-2.8,0.1c-0.7-0.1-1.4-0.1-2.2-0.1c-0.9,0-1.8,0-2.6,0.1c-0.8-0.1-1.5-0.1-2.3-0.1
		c-0.8,0-1.7,0-2.5,0.1c-0.8-0.1-1.6-0.1-2.4-0.1c-17.7,0-32.1,14.4-32.1,32.1c0,17.7,14.4,32.1,32.1,32.1c0.8,0,1.6,0,2.4-0.1
		c0.8,0.1,1.5,0.1,2.3,0.1c0.9,0,1.7,0,2.5-0.1c0.7,0.1,1.4,0.1,2.2,0.1c0.9,0,1.8,0,2.6-0.1c0.7,0.1,1.4,0.1,2.1,0.1
		c0.9,0,1.8,0,2.8-0.1c0.6,0,1.3,0.1,1.9,0.1c1,0,1.9,0,2.9-0.1c0.6,0,1.2,0.1,1.8,0.1c1,0,2,0,3-0.1c0.6,0,1.1,0.1,1.7,0.1
		c1.1,0,2.1,0,3.1-0.1c0.5,0,1,0.1,1.6,0.1c1.1,0,2.2,0,3.3-0.1c0.5,0,0.9,0.1,1.4,0.1c1.1,0,2.3,0,3.4-0.1c0.4,0,0.9,0.1,1.3,0.1
		c1.2,0,2.4,0,3.5-0.1c0.4,0,0.8,0.1,1.2,0.1c1.2,0,2.4,0,3.6-0.1c0.4,0,0.7,0.1,1.1,0.1c17.7,0.7,32.7-13,33.4-30.8
		C217,32.6,203.2,17.6,185.5,16.9z"/>
	<path class="st0" d="M176.3,99.3c-5.7-2.8-11.8-3.8-17.7-3.2c-2.3-0.3-4.7-0.3-7,0c-2.3-0.3-11.7-0.3-14,0c-2.3-0.3-4.7-0.3-7,0
		c-2.3-0.3-4.7-0.3-7,0c-2.3-0.3-4.7-0.3-7,0c-2.3-0.3-4.7-0.3-7,0c-2.3-0.3-4.7-0.3-7,0c-2.3-0.3-4.7-0.3-7,0c-2.3-0.3-4.7-0.3-7,0
		c-13-1.5-26.1,5.2-32.3,17.6c-7.9,15.9-1.4,35.1,14.4,43c5.7,2.8,11.8,3.8,17.7,3.2c2.3,0.3,4.7,0.3,7,0c2.3,0.3,4.7,0.3,7,0
		c2.3,0.3,4.7,0.3,7,0c2.3,0.3,39.7,0.3,42,0c2.3,0.3,4.7,0.3,7,0c13,1.5,26.1-5.2,32.3-17.6C198.6,126.4,192.2,107.2,176.3,99.3z"
		/>
</g>
<g>
	<circle cx="131.2" cy="49" r="32.1"/>
</g>
<path class="st1" d="M122.8,125.3c1.6-2.1,2.9-4.5,4-7.1c1.6-2.1,3-4.5,4-7c1.6-2.1,3-4.5,4.1-7c1.7-2.1,3-4.5,4.1-7
	c1.7-2.1,3.1-4.4,4.2-7c1.7-2.1,3.1-4.4,4.2-6.9c1.7-2.1,3.1-4.4,4.3-6.9c1.7-2.1,3.2-4.4,4.3-6.9c4.6-5.6,7.4-12.7,7.4-20.5
	c0-17.7-14.4-32.1-32.1-32.1c-13.7,0-25.4,8.6-30,20.6c-1.6,2.2-2.9,4.6-3.9,7.1c-1.6,2.2-2.9,4.6-3.9,7.1c-1.6,2.1-3,4.5-4,7.1
	c-1,1.3-1.8,2.6-2.6,4.1c-0.5-0.9-1-1.7-1.5-2.6c-0.8-2.5-2-4.8-3.5-7c-0.8-2.5-2-4.9-3.4-7.1c-0.8-2.4-1.9-4.8-3.3-7.1
	c-1.1-3.3-2.7-6.5-4.9-9.5c-10.7-14.1-30.8-16.9-45-6.3C11.1,34,8.3,53.8,18.6,68c1,2.4,2.2,4.7,3.8,6.9c0.9,2.4,2.2,4.7,3.8,6.9
	c0.9,2.4,2.2,4.8,3.7,6.9c0.9,2.4,2.1,4.8,3.7,7c0.9,2.4,2.1,4.8,3.6,7c0.9,2.5,2.1,4.8,3.6,7c0.9,2.5,2,4.8,3.5,7
	c0.8,2.5,2,4.8,3.5,7c0.8,2.5,2,4.9,3.4,7.1c0.8,2.5,1.9,4.9,3.4,7.1c2.6,7.9,8.2,14.8,16.2,18.8c15.9,7.9,35.1,1.4,43-14.4
	c0.5-0.9,0.9-1.9,1.2-2.8c1.3-1.7,2.4-3.6,3.3-5.7c0.2-0.5,0.4-1,0.6-1.5C120.4,130.2,121.7,127.9,122.8,125.3
	C122.7,125.3,122.7,125.3,122.8,125.3z"/>
</svg>
