<svg width="209" height="151" xmlns="http://www.w3.org/2000/svg"><g transform="translate(4 3)" fill="none"><path d="M173.5.9c-1.3-.1-2.5 0-3.8.1-.4 0-.8-.1-1.2-.1-1.2 0-2.4 0-3.6.1-.4 0-.9-.1-1.3-.1-1.2 0-2.4 0-3.5.1-.5 0-.9-.1-1.4-.1-1.1 0-2.3 0-3.4.1-.5 0-1-.1-1.6-.1-1.1 0-2.2 0-3.3.1-.6 0-1.1-.1-1.7-.1-1.1 0-2.1 0-3.1.1-.6 0-1.2-.1-1.8-.1-1 0-2 0-3 .1-.6 0-1.3-.1-1.9-.1-1 0-1.9 0-2.9.1-.7-.1-1.4-.1-2-.1-.9 0-1.9 0-2.8.1-.7-.1-1.4-.1-2.2-.1-.9 0-1.8 0-2.6.1-.8-.1-1.5-.1-2.3-.1-.8 0-1.7 0-2.5.1-.8-.1-1.6-.1-2.4-.1C101.5.9 87.1 15.3 87.1 33c0 17.7 14.4 32.1 32.1 32.1.8 0 1.6 0 2.4-.1.8.1 1.5.1 2.3.1.9 0 1.7 0 2.5-.1.7.1 1.4.1 2.2.1.9 0 1.8 0 2.6-.1.7.1 1.4.1 2.1.1.9 0 1.8 0 2.8-.1.6 0 1.3.1 1.9.1 1 0 1.9 0 2.9-.1.6 0 1.2.1 1.8.1 1 0 2 0 3-.1.6 0 1.1.1 1.7.1 1.1 0 2.1 0 3.1-.1.5 0 1 .1 1.6.1 1.1 0 2.2 0 3.3-.1.5 0 .9.1 1.4.1 1.1 0 2.3 0 3.4-.1.4 0 .9.1 1.3.1 1.2 0 2.4 0 3.5-.1.4 0 .8.1 1.2.1 1.2 0 2.4 0 3.6-.1.4 0 .7.1 1.1.1 17.7.7 32.7-13 33.4-30.8.7-17.7-13.1-32.7-30.8-33.4zm-9.2 82.4c-5.7-2.8-11.8-3.8-17.7-3.2-2.3-.3-4.7-.3-7 0-2.3-.3-11.7-.3-14 0-2.3-.3-4.7-.3-7 0-2.3-.3-4.7-.3-7 0-2.3-.3-4.7-.3-7 0-2.3-.3-4.7-.3-7 0-2.3-.3-4.7-.3-7 0-2.3-.3-4.7-.3-7 0-2.3-.3-4.7-.3-7 0-13-1.5-26.1 5.2-32.3 17.6-7.9 15.9-1.4 35.1 14.4 43 5.7 2.8 11.8 3.8 17.7 3.2 2.3.3 4.7.3 7 0 2.3.3 4.7.3 7 0 2.3.3 4.7.3 7 0 2.3.3 39.7.3 42 0 2.3.3 4.7.3 7 0 13 1.5 26.1-5.2 32.3-17.6 7.9-15.9 1.5-35.1-14.4-43z" fill="#3E3E3E"/><circle fill="#000" cx="119.2" cy="33" r="32.1"/><path d="M110.8 109.3c1.6-2.1 2.9-4.5 4-7.1 1.6-2.1 3-4.5 4-7 1.6-2.1 3-4.5 4.1-7 1.7-2.1 3-4.5 4.1-7 1.7-2.1 3.1-4.4 4.2-7 1.7-2.1 3.1-4.4 4.2-6.9 1.7-2.1 3.1-4.4 4.3-6.9 1.7-2.1 3.2-4.4 4.3-6.9 4.6-5.6 7.4-12.7 7.4-20.5C151.4 15.3 137 .9 119.3.9c-13.7 0-25.4 8.6-30 20.6-1.6 2.2-2.9 4.6-3.9 7.1-1.6 2.2-2.9 4.6-3.9 7.1-1.6 2.1-3 4.5-4 7.1-1 1.3-1.8 2.6-2.6 4.1-.5-.9-1-1.7-1.5-2.6-.8-2.5-2-4.8-3.5-7-.8-2.5-2-4.9-3.4-7.1-.8-2.4-1.9-4.8-3.3-7.1-1.1-3.3-2.7-6.5-4.9-9.5C47.6-.5 27.5-3.3 13.3 7.3-.9 18-3.7 37.8 6.6 52c1 2.4 2.2 4.7 3.8 6.9.9 2.4 2.2 4.7 3.8 6.9.9 2.4 2.2 4.8 3.7 6.9.9 2.4 2.1 4.8 3.7 7 .9 2.4 2.1 4.8 3.6 7 .9 2.5 2.1 4.8 3.6 7 .9 2.5 2 4.8 3.5 7 .8 2.5 2 4.8 3.5 7 .8 2.5 2 4.9 3.4 7.1.8 2.5 1.9 4.9 3.4 7.1 2.6 7.9 8.2 14.8 16.2 18.8 15.9 7.9 35.1 1.4 43-14.4.5-.9.9-1.9 1.2-2.8 1.3-1.7 2.4-3.6 3.3-5.7l.6-1.5c1.5-2.1 2.8-4.4 3.9-7-.1 0-.1 0 0 0z" stroke="#000" stroke-width="7" fill="#FFF"/></g></svg>