<svg xmlns="http://www.w3.org/2000/svg" viewBox="0 0 35.3 17"><path d="M18.4 1.7h-5c-1.7 0-3 1.4-3 3 0 1.7 1.4 3 3 3h4.7c1.7.1 3.1-1.2 3.2-2.9.1-1.6-1.2-3-2.9-3.1zm-.9 7.8c-.5-.3-1.1-.4-1.7-.3H8.9c-1.2-.1-2.5.5-3 1.7-.7 1.5-.1 3.3 1.4 4.1.5.3 1.1.4 1.7.3h6.8c1.2.1 2.5-.5 3-1.7.8-1.5.2-3.3-1.3-4.1z" fill="#3e3e3e"/><circle cx="13.3" cy="4.8" r="3"/><path d="M12.5 12c.2-.2.3-.4.4-.7.2-.2.3-.4.4-.7.2-.2.3-.4.4-.7.2-.2.3-.4.4-.7.2-.2.3-.4.4-.7.2-.2.3-.4.4-.7.2-.2.3-.4.4-.7.2-.2.3-.4.4-.6.4-.5.7-1.2.7-1.9 0-1.7-1.4-3-3-3-1.3 0-2.4.8-2.8 1.9-.1.2-.3.4-.4.7-.3.4-.4.6-.5.8-.2.2-.3.4-.4.7-.1.1-.2.2-.2.4-.1-.1-.1-.2-.2-.3l-.3-.6c-.1-.3-.2-.5-.3-.7-.1-.2-.2-.5-.3-.7-.1-.3-.3-.6-.5-.9-1-1.3-2.9-1.6-4.2-.6-1.3 1-1.6 2.9-.6 4.2 0 .3.1.5.3.7.1.2.2.4.4.7.1.2.2.4.4.7 0 .1.1.4.2.6.1.2.2.5.3.7.1.2.2.5.3.7.1.2.2.5.3.7.1.2.2.5.3.7.1.2.2.5.3.7.1.2.2.5.3.7.2.7.8 1.4 1.5 1.8 1.5.7 3.3.1 4.1-1.4 0-.1.1-.2.1-.3.1-.2.2-.3.3-.5 0 0 0-.1.1-.1.3-.5.5-.7.6-.9 0 0 0 0 0 0z" fill="#fff" stroke="#000" stroke-width=".661" stroke-miterlimit="10"/></svg>