<?xml version="1.0" encoding="utf-8"?>
<!-- Generator: Adobe Illustrator 22.1.0, SVG Export Plug-In . SVG Version: 6.00 Build 0)  -->
<svg version="1.1" id="Layer_1" xmlns="http://www.w3.org/2000/svg" xmlns:xlink="http://www.w3.org/1999/xlink" x="0px" y="0px"
	 viewBox="0 0 418.5 179.5" style="enable-background:new 0 0 418.5 179.5;" xml:space="preserve">
<style type="text/css">
	.st0{fill:#6DAB49;}
	.st1{fill:#DA0F21;}
</style>
<g>
	<path d="M0,59.2h43.2v9.1H10.5V84h30.2v8.6H10.5v17.6h33.3v9.1H0V59.2z"/>
	<path d="M52.8,59.2h14.8l16.6,47h0.2l16.1-47H115v60h-10V72.9h-0.2l-16.6,46.3h-8.7L62.9,72.9h-0.2v46.3h-10V59.2z"/>
	<path d="M127.6,59.2h29.2c5.4,0,9.7,1.2,12.9,3.7c3.2,2.5,4.9,6.2,4.9,11.2c0,3-0.7,5.6-2.2,7.8c-1.5,2.2-3.6,3.8-6.3,5V87
		c3.7,0.8,6.5,2.5,8.4,5.3c1.9,2.7,2.9,6.1,2.9,10.2c0,2.4-0.4,4.6-1.3,6.6c-0.8,2-2.2,3.8-3.9,5.3c-1.8,1.5-4.1,2.7-6.9,3.5
		c-2.8,0.9-6.1,1.3-10,1.3h-27.6V59.2z M138.1,84.3h17.1c2.5,0,4.6-0.7,6.3-2.1c1.7-1.4,2.5-3.5,2.5-6.2c0-3-0.8-5.2-2.3-6.4
		c-1.5-1.2-3.7-1.8-6.6-1.8h-17.1V84.3z M138.1,110.6h18.6c3.2,0,5.7-0.8,7.4-2.5c1.8-1.7,2.6-4,2.6-7c0-3-0.9-5.3-2.6-6.8
		c-1.8-1.6-4.2-2.4-7.4-2.4h-18.6V110.6z"/>
	<path d="M186.8,59.2h10.5v50.9h30.5v9.1h-41V59.2z"/>
</g>
<g>
	<circle class="st0" cx="301.3" cy="28.1" r="7.5"/>
	<circle class="st0" cx="301.3" cy="48.7" r="7.5"/>
	<circle class="st0" cx="301.3" cy="69.2" r="7.5"/>
	<circle class="st0" cx="301.3" cy="89.7" r="7.5"/>
	<circle class="st0" cx="301.3" cy="130.9" r="7.5"/>
	<circle class="st0" cx="301.3" cy="151.5" r="7.5"/>
	<circle class="st0" cx="264.3" cy="48.6" r="7.5"/>
	<circle class="st0" cx="264.3" cy="69.3" r="7.5"/>
	<circle class="st0" cx="264.3" cy="89.7" r="7.5"/>
	<circle class="st0" cx="264.3" cy="110.3" r="7.5"/>
	<circle class="st0" cx="264.3" cy="130.8" r="7.5"/>
	<circle class="st0" cx="283.3" cy="38.4" r="7.5"/>
	<circle class="st0" cx="283.3" cy="59" r="7.5"/>
	<circle class="st0" cx="283.3" cy="79.5" r="7.5"/>
	<circle class="st0" cx="283.3" cy="100" r="7.5"/>
	<circle class="st0" cx="283.3" cy="120.5" r="7.5"/>
	<circle class="st0" cx="283.3" cy="141" r="7.5"/>
	<circle class="st0" cx="411" cy="48.6" r="7.5"/>
	<circle class="st0" cx="411" cy="69" r="7.5"/>
	<circle class="st0" cx="411" cy="89.7" r="7.5"/>
	<circle class="st0" cx="411" cy="110" r="7.5"/>
	<circle class="st0" cx="411" cy="131" r="7.5"/>
	<circle class="st0" cx="392.3" cy="38.4" r="7.5"/>
	<circle class="st0" cx="392.3" cy="59" r="7.5"/>
	<circle class="st0" cx="392.3" cy="79.5" r="7.5"/>
	<circle class="st0" cx="392.3" cy="100" r="7.5"/>
	<circle class="st0" cx="392.3" cy="120.5" r="7.5"/>
	<circle class="st0" cx="392.3" cy="141" r="7.5"/>
	<circle class="st0" cx="374.3" cy="28" r="7.5"/>
	<circle class="st0" cx="374.3" cy="48.7" r="7.5"/>
	<circle class="st0" cx="374.3" cy="69" r="7.5"/>
	<circle class="st0" cx="374.3" cy="89.7" r="7.5"/>
	<circle class="st0" cx="374.3" cy="110" r="7.5"/>
	<circle class="st0" cx="374.3" cy="131" r="7.5"/>
	<circle class="st0" cx="374.3" cy="151.5" r="7.5"/>
	<circle class="st1" cx="301.3" cy="110" r="7.5"/>
	<circle class="st0" cx="356.3" cy="18" r="7.5"/>
	<circle class="st0" cx="356.3" cy="38" r="7.5"/>
	<circle class="st0" cx="356.3" cy="59" r="7.5"/>
	<circle class="st0" cx="356.3" cy="79" r="7.5"/>
	<circle class="st0" cx="356.3" cy="100" r="7.5"/>
	<circle class="st0" cx="356.3" cy="120.5" r="7.5"/>
	<circle class="st0" cx="356.3" cy="141" r="7.5"/>
	<circle class="st0" cx="356.3" cy="161.6" r="7.5"/>
	<circle class="st0" cx="337.8" cy="7.5" r="7.5"/>
	<circle class="st0" cx="337.8" cy="28" r="7.5"/>
	<circle class="st0" cx="337.8" cy="48.6" r="7.5"/>
	<circle class="st0" cx="337.8" cy="69" r="7.5"/>
	<circle class="st0" cx="337.8" cy="90" r="7.5"/>
	<circle class="st0" cx="337.8" cy="110.3" r="7.5"/>
	<circle class="st0" cx="337.8" cy="131" r="7.5"/>
	<circle class="st0" cx="337.8" cy="151.4" r="7.5"/>
	<circle class="st0" cx="319.3" cy="17.7" r="7.5"/>
	<circle class="st0" cx="319.3" cy="38.3" r="7.5"/>
	<circle class="st0" cx="319.3" cy="58.8" r="7.5"/>
	<circle class="st0" cx="319.3" cy="79.4" r="7.5"/>
	<circle class="st0" cx="319.3" cy="100" r="7.5"/>
	<circle class="st0" cx="319.3" cy="120.5" r="7.5"/>
	<circle class="st0" cx="319.3" cy="141" r="7.5"/>
	<circle class="st0" cx="319.3" cy="161.6" r="7.5"/>
	<circle class="st0" cx="337.8" cy="172" r="7.5"/>
</g>
</svg>
