<?xml version="1.0" standalone="no"?>
<!DOCTYPE svg PUBLIC "-//W3C//DTD SVG 20010904//EN"
 "http://www.w3.org/TR/2001/REC-SVG-20010904/DTD/svg10.dtd">
<svg version="1.0" xmlns="http://www.w3.org/2000/svg"
 width="180.000000pt" height="180.000000pt" viewBox="0 0 180.000000 180.000000"
 preserveAspectRatio="xMidYMid meet">
<metadata>
Created by potrace 1.11, written by Peter Selinger 2001-2013
</metadata>
<g transform="translate(0.000000,180.000000) scale(0.100000,-0.100000)"
fill="#000000" stroke="none">
<path d="M855 1775 c-14 -13 -25 -36 -25 -50 0 -33 42 -75 75 -75 33 0 75 42
75 75 0 14 -11 37 -25 50 -13 14 -36 25 -50 25 -14 0 -37 -11 -50 -25z"/>
<path d="M678 1680 c-33 -25 -39 -49 -22 -88 22 -54 102 -56 127 -4 18 36 11
67 -20 92 -32 25 -54 25 -85 0z"/>
<path d="M1074 1692 c-53 -8 -75 -85 -36 -124 45 -45 126 -11 124 52 -1 51
-37 80 -88 72z"/>
<path d="M509 1582 c-46 -23 -57 -72 -24 -109 44 -52 129 -21 127 46 -1 39 -7
48 -41 66 -25 12 -32 12 -62 -3z"/>
<path d="M874 1587 c-61 -34 -57 -112 7 -135 66 -25 127 55 85 111 -19 24 -68
37 -92 24z"/>
<path d="M1244 1589 c-30 -10 -45 -34 -46 -69 -2 -68 83 -99 129 -46 48 57
-13 141 -83 115z"/>
<path d="M1073 1492 c-13 -2 -31 -14 -42 -28 -38 -48 -1 -118 60 -116 41 1 70
30 71 70 2 51 -37 82 -89 74z"/>
<path d="M317 1478 c-45 -35 -37 -107 15 -129 26 -10 35 -10 57 2 72 41 50
139 -31 139 -13 0 -32 -6 -41 -12z"/>
<path d="M670 1470 c-11 -11 -20 -23 -21 -27 0 -5 -2 -17 -4 -27 -5 -24 46
-76 74 -76 36 0 74 43 73 81 -2 62 -78 93 -122 49z"/>
<path d="M1407 1478 c-9 -7 -21 -28 -27 -47 -8 -30 -6 -36 20 -62 31 -32 46
-35 84 -18 34 16 47 57 31 96 -18 43 -71 58 -108 31z"/>
<path d="M126 1368 c-37 -34 -39 -76 -4 -108 38 -35 93 -24 113 23 16 39 3 80
-31 96 -36 16 -50 14 -78 -11z"/>
<path d="M492 1366 c-28 -31 -31 -48 -17 -84 33 -76 151 -38 137 44 -8 54 -85
79 -120 40z"/>
<path d="M855 1365 c-14 -13 -25 -36 -25 -50 0 -33 42 -75 75 -75 14 0 37 11
50 25 14 13 25 36 25 50 0 14 -11 37 -25 50 -13 14 -36 25 -50 25 -14 0 -37
-11 -50 -25z"/>
<path d="M1228 1370 c-33 -25 -39 -49 -22 -88 22 -54 102 -56 127 -4 18 36 11
67 -20 92 -32 25 -54 25 -85 0z"/>
<path d="M1589 1371 c-51 -41 -17 -131 50 -131 65 0 95 89 45 129 -33 26 -65
27 -95 2z"/>
<path d="M335 1280 c-80 -31 -51 -155 33 -142 40 5 63 32 64 72 2 50 -52 89
-97 70z"/>
<path d="M695 1280 c-78 -31 -56 -140 28 -140 68 0 95 82 43 127 -29 25 -39
27 -71 13z"/>
<path d="M1074 1282 c-53 -8 -75 -85 -36 -124 10 -11 33 -20 50 -20 61 -2 94
57 62 110 -19 30 -40 40 -76 34z"/>
<path d="M1434 1282 c-53 -8 -75 -85 -36 -124 26 -26 78 -26 104 0 20 20 27
69 13 92 -11 17 -59 36 -81 32z"/>
<path d="M880 1176 c-64 -21 -65 -112 0 -134 41 -15 86 8 95 48 14 64 -33 106
-95 86z"/>
<path d="M1253 1182 c-13 -2 -31 -14 -42 -28 -38 -48 -1 -118 60 -116 41 1 70
30 71 70 2 51 -37 82 -89 74z"/>
<path d="M1588 1159 c-24 -24 -29 -35 -23 -57 22 -91 145 -83 145 9 0 26 -28
68 -47 70 -5 0 -17 2 -27 4 -11 2 -31 -9 -48 -26z"/>
<path d="M120 1160 c-19 -19 -24 -37 -21 -70 3 -21 48 -60 71 -60 40 0 76 49
71 98 -2 23 -41 52 -71 52 -17 0 -39 -9 -50 -20z"/>
<path d="M491 1162 c-52 -41 -8 -139 57 -127 90 16 83 145 -8 145 -15 0 -38
-8 -49 -18z"/>
<path d="M1074 1082 c-53 -8 -75 -85 -36 -124 44 -45 122 -13 124 50 2 51 -37
82 -88 74z"/>
<path d="M318 1066 c-42 -32 -41 -90 1 -123 55 -42 137 29 108 93 -17 39 -76
55 -109 30z"/>
<path d="M678 1066 c-51 -38 -34 -120 29 -132 56 -11 100 43 81 99 -16 45 -72
62 -110 33z"/>
<path d="M1414 1070 c-60 -24 -37 -138 28 -140 79 -1 112 107 42 139 -29 13
-41 13 -70 1z"/>
<path d="M125 958 c-32 -28 -37 -54 -18 -90 26 -52 105 -50 127 4 17 39 11 63
-22 88 -32 26 -55 25 -87 -2z"/>
<path d="M497 958 c-53 -47 -27 -128 41 -128 38 0 60 18 71 58 8 27 6 36 -12
57 -33 36 -69 41 -100 13z"/>
<path d="M881 968 c-67 -25 -67 -111 0 -136 46 -18 98 19 98 68 0 49 -52 86
-98 68z"/>
<path d="M1240 967 c-82 -41 -35 -156 54 -133 58 14 65 110 10 135 -31 14 -33
14 -64 -2z"/>
<path d="M1598 964 c-16 -8 -29 -20 -29 -27 -1 -7 -3 -23 -4 -36 -3 -33 36
-71 73 -71 60 0 93 72 55 119 -23 28 -61 34 -95 15z"/>
<path d="M349 872 c-36 -4 -62 -36 -61 -73 3 -94 141 -96 144 -2 2 51 -33 82
-83 75z"/>
<path d="M695 870 c-80 -30 -51 -155 33 -142 40 5 65 34 64 74 -1 52 -50 86
-97 68z"/>
<path d="M1075 872 c-84 -17 -73 -142 13 -144 42 -1 73 28 74 70 2 50 -38 84
-87 74z"/>
<path d="M1434 872 c-52 -8 -75 -85 -37 -123 26 -26 79 -28 103 -3 54 55 10
138 -66 126z"/>
<path d="M528 772 c-38 -5 -66 -43 -60 -81 13 -90 145 -81 145 9 0 48 -35 79
-85 72z"/>
<path d="M1253 772 c-33 -5 -63 -47 -57 -80 16 -89 147 -83 147 7 0 50 -38 81
-90 73z"/>
<path d="M1609 768 c-79 -26 -43 -152 40 -140 61 9 82 83 36 126 -27 25 -37
27 -76 14z"/>
<path d="M132 763 c-24 -9 -43 -60 -33 -86 11 -29 47 -57 73 -57 38 0 74 50
69 98 -3 36 -66 63 -109 45z"/>
<path d="M851 744 c-42 -54 -13 -118 54 -118 67 0 96 64 54 118 -15 19 -30 26
-54 26 -24 0 -39 -7 -54 -26z"/>
<path d="M312 650 c-12 -12 -23 -25 -23 -30 -1 -6 -2 -16 -3 -22 -5 -37 38
-78 82 -78 42 1 76 57 60 99 -19 52 -77 67 -116 31z"/>
<path d="M679 657 c-46 -35 -42 -103 7 -126 48 -22 85 -7 104 43 17 45 -20 95
-70 95 -14 0 -32 -5 -41 -12z"/>
<path d="M1042 650 c-44 -37 -26 -113 29 -125 50 -11 100 28 93 73 -1 6 -2 16
-3 22 -2 19 -46 50 -70 50 -14 -1 -36 -9 -49 -20z"/>
<path d="M1408 656 c-49 -37 -35 -118 22 -131 40 -9 76 9 88 44 24 68 -55 130
-110 87z"/>
<path d="M126 549 c-65 -52 -13 -145 70 -125 28 7 55 57 47 87 -13 49 -77 70
-117 38z"/>
<path d="M515 560 c-31 -12 -46 -35 -47 -69 -1 -43 27 -71 72 -71 46 0 73 28
72 72 -1 50 -53 86 -97 68z"/>
<path d="M879 558 c-43 -14 -62 -75 -35 -111 35 -46 117 -34 130 19 16 61 -37
112 -95 92z"/>
<path d="M1244 559 c-30 -11 -47 -37 -46 -71 3 -94 141 -93 144 0 2 53 -49 90
-98 71z"/>
<path d="M1625 561 c-59 -18 -80 -69 -46 -113 26 -33 50 -39 89 -22 34 14 48
48 38 89 -7 29 -52 54 -81 46z"/>
<path d="M349 462 c-84 -11 -80 -131 4 -146 40 -7 80 30 79 73 -1 51 -34 80
-83 73z"/>
<path d="M674 447 c-36 -31 -36 -83 0 -112 50 -40 116 -9 118 55 2 62 -71 97
-118 57z"/>
<path d="M1074 462 c-52 -8 -75 -85 -37 -123 46 -46 127 -13 125 51 -1 51 -37
80 -88 72z"/>
<path d="M1424 459 c-30 -11 -47 -37 -46 -71 3 -94 141 -93 144 0 2 53 -49 90
-98 71z"/>
<path d="M498 346 c-27 -20 -40 -64 -26 -89 33 -63 103 -63 136 0 32 60 -55
131 -110 89z"/>
<path d="M855 335 c-32 -31 -32 -69 1 -102 20 -20 31 -24 57 -19 38 7 67 39
67 73 0 32 -42 73 -75 73 -14 0 -37 -11 -50 -25z"/>
<path d="M1228 346 c-27 -20 -40 -64 -26 -89 34 -64 112 -62 136 4 24 64 -56
126 -110 85z"/>
<path d="M682 248 c-32 -16 -43 -66 -23 -101 29 -50 99 -49 126 3 18 35 18 37
-3 72 -22 37 -57 46 -100 26z"/>
<path d="M1053 248 c-32 -15 -44 -57 -27 -96 23 -56 105 -56 128 0 17 39 11
63 -22 88 -27 22 -46 24 -79 8z"/>
<path d="M874 147 c-46 -25 -58 -78 -26 -114 20 -24 46 -30 85 -20 27 7 47 40
47 75 -1 43 -68 80 -106 59z"/>
</g>
</svg>
