<svg version="1.0" xmlns="http://www.w3.org/2000/svg" width="240" height="240" viewBox="0 0 180 180"><path d="M85.5 2.5c-1.4 1.3-2.5 3.6-2.5 5 0 3.3 4.2 7.5 7.5 7.5S98 10.8 98 7.5c0-1.4-1.1-3.7-2.5-5-1.3-1.4-3.6-2.5-5-2.5s-3.7 1.1-5 2.5zM67.8 12c-3.3 2.5-3.9 4.9-2.2 8.8 2.2 5.4 10.2 5.6 12.7.4 1.8-3.6 1.1-6.7-2-9.2-3.2-2.5-5.4-2.5-8.5 0zm39.6-1.2c-5.3.8-7.5 8.5-3.6 12.4 4.5 4.5 12.6 1.1 12.4-5.2-.1-5.1-3.7-8-8.8-7.2zm-56.5 11c-4.6 2.3-5.7 7.2-2.4 10.9 4.4 5.2 12.9 2.1 12.7-4.6-.1-3.9-.7-4.8-4.1-6.6-2.5-1.2-3.2-1.2-6.2.3zm36.5-.5c-6.1 3.4-5.7 11.2.7 13.5 6.6 2.5 12.7-5.5 8.5-11.1-1.9-2.4-6.8-3.7-9.2-2.4zm37-.2c-3 1-4.5 3.4-4.6 6.9-.2 6.8 8.3 9.9 12.9 4.6 4.8-5.7-1.3-14.1-8.3-11.5zm-17.1 9.7c-1.3.2-3.1 1.4-4.2 2.8-3.8 4.8-.1 11.8 6 11.6 4.1-.1 7-3 7.1-7 .2-5.1-3.7-8.2-8.9-7.4zm-75.6 1.4c-4.5 3.5-3.7 10.7 1.5 12.9 2.6 1 3.5 1 5.7-.2 7.2-4.1 5-13.9-3.1-13.9-1.3 0-3.2.6-4.1 1.2zM67 33c-1.1 1.1-2 2.3-2.1 2.7 0 .5-.2 1.7-.4 2.7-.5 2.4 4.6 7.6 7.4 7.6 3.6 0 7.4-4.3 7.3-8.1-.2-6.2-7.8-9.3-12.2-4.9zm73.7-.8c-.9.7-2.1 2.8-2.7 4.7-.8 3-.6 3.6 2 6.2 3.1 3.2 4.6 3.5 8.4 1.8 3.4-1.6 4.7-5.7 3.1-9.6-1.8-4.3-7.1-5.8-10.8-3.1zm-128.1 11c-3.7 3.4-3.9 7.6-.4 10.8 3.8 3.5 9.3 2.4 11.3-2.3 1.6-3.9.3-8-3.1-9.6-3.6-1.6-5-1.4-7.8 1.1zm36.6.2c-2.8 3.1-3.1 4.8-1.7 8.4 3.3 7.6 15.1 3.8 13.7-4.4-.8-5.4-8.5-7.9-12-4zm36.3.1c-1.4 1.3-2.5 3.6-2.5 5 0 3.3 4.2 7.5 7.5 7.5 1.4 0 3.7-1.1 5-2.5 1.4-1.3 2.5-3.6 2.5-5s-1.1-3.7-2.5-5c-1.3-1.4-3.6-2.5-5-2.5s-3.7 1.1-5 2.5zm37.3-.5c-3.3 2.5-3.9 4.9-2.2 8.8 2.2 5.4 10.2 5.6 12.7.4 1.8-3.6 1.1-6.7-2-9.2-3.2-2.5-5.4-2.5-8.5 0zm36.1-.1c-5.1 4.1-1.7 13.1 5 13.1 6.5 0 9.5-8.9 4.5-12.9-3.3-2.6-6.5-2.7-9.5-.2zM33.5 52c-8 3.1-5.1 15.5 3.3 14.2 4-.5 6.3-3.2 6.4-7.2.2-5-5.2-8.9-9.7-7zm36 0c-7.8 3.1-5.6 14 2.8 14 6.8 0 9.5-8.2 4.3-12.7-2.9-2.5-3.9-2.7-7.1-1.3zm37.9-.2c-5.3.8-7.5 8.5-3.6 12.4 1 1.1 3.3 2 5 2 6.1.2 9.4-5.7 6.2-11-1.9-3-4-4-7.6-3.4zm36 0c-5.3.8-7.5 8.5-3.6 12.4 2.6 2.6 7.8 2.6 10.4 0 2-2 2.7-6.9 1.3-9.2-1.1-1.7-5.9-3.6-8.1-3.2zM88 62.4c-6.4 2.1-6.5 11.2 0 13.4 4.1 1.5 8.6-.8 9.5-4.8 1.4-6.4-3.3-10.6-9.5-8.6zm37.3-.6c-1.3.2-3.1 1.4-4.2 2.8-3.8 4.8-.1 11.8 6 11.6 4.1-.1 7-3 7.1-7 .2-5.1-3.7-8.2-8.9-7.4zm33.5 2.3c-2.4 2.4-2.9 3.5-2.3 5.7 2.2 9.1 14.5 8.3 14.5-.9 0-2.6-2.8-6.8-4.7-7-.5 0-1.7-.2-2.7-.4-1.1-.2-3.1.9-4.8 2.6zM12 64c-1.9 1.9-2.4 3.7-2.1 7 .3 2.1 4.8 6 7.1 6 4 0 7.6-4.9 7.1-9.8C23.9 64.9 20 62 17 62c-1.7 0-3.9.9-5 2zm37.1-.2c-5.2 4.1-.8 13.9 5.7 12.7 9-1.6 8.3-14.5-.8-14.5-1.5 0-3.8.8-4.9 1.8zm58.3 8c-5.3.8-7.5 8.5-3.6 12.4 4.4 4.5 12.2 1.3 12.4-5 .2-5.1-3.7-8.2-8.8-7.4zm-75.6 1.6c-4.2 3.2-4.1 9 .1 12.3 5.5 4.2 13.7-2.9 10.8-9.3-1.7-3.9-7.6-5.5-10.9-3zm36 0c-5.1 3.8-3.4 12 2.9 13.2 5.6 1.1 10-4.3 8.1-9.9-1.6-4.5-7.2-6.2-11-3.3zm73.6-.4c-6 2.4-3.7 13.8 2.8 14 7.9.1 11.2-10.7 4.2-13.9-2.9-1.3-4.1-1.3-7-.1zM12.5 84.2c-3.2 2.8-3.7 5.4-1.8 9 2.6 5.2 10.5 5 12.7-.4 1.7-3.9 1.1-6.3-2.2-8.8-3.2-2.6-5.5-2.5-8.7.2zm37.2 0C44.4 88.9 47 97 53.8 97c3.8 0 6-1.8 7.1-5.8.8-2.7.6-3.6-1.2-5.7-3.3-3.6-6.9-4.1-10-1.3zm38.4-1c-6.7 2.5-6.7 11.1 0 13.6 4.6 1.8 9.8-1.9 9.8-6.8s-5.2-8.6-9.8-6.8zm35.9.1c-8.2 4.1-3.5 15.6 5.4 13.3 5.8-1.4 6.5-11 1-13.5-3.1-1.4-3.3-1.4-6.4.2zm35.8.3c-1.6.8-2.9 2-2.9 2.7-.1.7-.3 2.3-.4 3.6-.3 3.3 3.6 7.1 7.3 7.1 6 0 9.3-7.2 5.5-11.9-2.3-2.8-6.1-3.4-9.5-1.5zM34.9 92.8c-3.6.4-6.2 3.6-6.1 7.3.3 9.4 14.1 9.6 14.4.2.2-5.1-3.3-8.2-8.3-7.5zm34.6.2c-8 3-5.1 15.5 3.3 14.2 4-.5 6.5-3.4 6.4-7.4-.1-5.2-5-8.6-9.7-6.8zm38-.2c-8.4 1.7-7.3 14.2 1.3 14.4 4.2.1 7.3-2.8 7.4-7 .2-5-3.8-8.4-8.7-7.4zm35.9 0c-5.2.8-7.5 8.5-3.7 12.3 2.6 2.6 7.9 2.8 10.3.3 5.4-5.5 1-13.8-6.6-12.6zm-90.6 10c-3.8.5-6.6 4.3-6 8.1 1.3 9 14.5 8.1 14.5-.9 0-4.8-3.5-7.9-8.5-7.2zm72.5 0c-3.3.5-6.3 4.7-5.7 8 1.6 8.9 14.7 8.3 14.7-.7 0-5-3.8-8.1-9-7.3zm35.6.4c-7.9 2.6-4.3 15.2 4 14 6.1-.9 8.2-8.3 3.6-12.6-2.7-2.5-3.7-2.7-7.6-1.4zm-147.7.5c-2.4.9-4.3 6-3.3 8.6 1.1 2.9 4.7 5.7 7.3 5.7 3.8 0 7.4-5 6.9-9.8-.3-3.6-6.6-6.3-10.9-4.5zm71.9 1.9c-4.2 5.4-1.3 11.8 5.4 11.8s9.6-6.4 5.4-11.8c-1.5-1.9-3-2.6-5.4-2.6-2.4 0-3.9.7-5.4 2.6zM31.2 115c-1.2 1.2-2.3 2.5-2.3 3-.1.6-.2 1.6-.3 2.2-.5 3.7 3.8 7.8 8.2 7.8 4.2-.1 7.6-5.7 6-9.9-1.9-5.2-7.7-6.7-11.6-3.1zm36.7-.7c-4.6 3.5-4.2 10.3.7 12.6 4.8 2.2 8.5.7 10.4-4.3 1.7-4.5-2-9.5-7-9.5-1.4 0-3.2.5-4.1 1.2zm36.3.7c-4.4 3.7-2.6 11.3 2.9 12.5 5 1.1 10-2.8 9.3-7.3-.1-.6-.2-1.6-.3-2.2-.2-1.9-4.6-5-7-5-1.4.1-3.6.9-4.9 2zm36.6-.6c-4.9 3.7-3.5 11.8 2.2 13.1 4 .9 7.6-.9 8.8-4.4 2.4-6.8-5.5-13-11-8.7zM12.6 125.1c-6.5 5.2-1.3 14.5 7 12.5 2.8-.7 5.5-5.7 4.7-8.7-1.3-4.9-7.7-7-11.7-3.8zm38.9-1.1c-3.1 1.2-4.6 3.5-4.7 6.9-.1 4.3 2.7 7.1 7.2 7.1 4.6 0 7.3-2.8 7.2-7.2-.1-5-5.3-8.6-9.7-6.8zm36.4.2c-4.3 1.4-6.2 7.5-3.5 11.1 3.5 4.6 11.7 3.4 13-1.9 1.6-6.1-3.7-11.2-9.5-9.2zm36.5-.1c-3 1.1-4.7 3.7-4.6 7.1.3 9.4 14.1 9.3 14.4 0 .2-5.3-4.9-9-9.8-7.1zm38.1-.2c-5.9 1.8-8 6.9-4.6 11.3 2.6 3.3 5 3.9 8.9 2.2 3.4-1.4 4.8-4.8 3.8-8.9-.7-2.9-5.2-5.4-8.1-4.6zm-127.6 9.9c-8.4 1.1-8 13.1.4 14.6 4 .7 8-3 7.9-7.3-.1-5.1-3.4-8-8.3-7.3zm32.5 1.5c-3.6 3.1-3.6 8.3 0 11.2 5 4 11.6.9 11.8-5.5.2-6.2-7.1-9.7-11.8-5.7zm40-1.5c-5.2.8-7.5 8.5-3.7 12.3 4.6 4.6 12.7 1.3 12.5-5.1-.1-5.1-3.7-8-8.8-7.2zm35 .3c-3 1.1-4.7 3.7-4.6 7.1.3 9.4 14.1 9.3 14.4 0 .2-5.3-4.9-9-9.8-7.1zm-92.6 11.3c-2.7 2-4 6.4-2.6 8.9 3.3 6.3 10.3 6.3 13.6 0 3.2-6-5.5-13.1-11-8.9zm35.7 1.1c-3.2 3.1-3.2 6.9.1 10.2 2 2 3.1 2.4 5.7 1.9 3.8-.7 6.7-3.9 6.7-7.3 0-3.2-4.2-7.3-7.5-7.3-1.4 0-3.7 1.1-5 2.5zm37.3-1.1c-2.7 2-4 6.4-2.6 8.9 3.4 6.4 11.2 6.2 13.6-.4 2.4-6.4-5.6-12.6-11-8.5zm-54.6 9.8c-3.2 1.6-4.3 6.6-2.3 10.1 2.9 5 9.9 4.9 12.6-.3 1.8-3.5 1.8-3.7-.3-7.2-2.2-3.7-5.7-4.6-10-2.6zm37.1 0c-3.2 1.5-4.4 5.7-2.7 9.6 2.3 5.6 10.5 5.6 12.8 0 1.7-3.9 1.1-6.3-2.2-8.8-2.7-2.2-4.6-2.4-7.9-.8zm-17.9 10.1c-4.6 2.5-5.8 7.8-2.6 11.4 2 2.4 4.6 3 8.5 2 2.7-.7 4.7-4 4.7-7.5-.1-4.3-6.8-8-10.6-5.9z"/></svg>