<?xml version="1.0" standalone="no"?>
<!DOCTYPE svg PUBLIC "-//W3C//DTD SVG 20010904//EN"
 "http://www.w3.org/TR/2001/REC-SVG-20010904/DTD/svg10.dtd">
<svg version="1.0" xmlns="http://www.w3.org/2000/svg"
 width="836.000000pt" height="836.000000pt" viewBox="0 0 836.000000 836.000000"
 preserveAspectRatio="xMidYMid meet">
<metadata>
Created by potrace 1.11, written by Peter Selinger 2001-2013
</metadata>
<g transform="translate(0.000000,836.000000) scale(0.100000,-0.100000)"
fill="#000000" stroke="none">
<path d="M1310 7184 c-14 -2 -64 -11 -112 -20 -223 -39 -466 -153 -645 -303
-256 -214 -424 -495 -495 -824 -29 -136 -31 -398 -4 -532 37 -187 115 -385
209 -527 19 -29 46 -78 60 -108 13 -30 43 -86 67 -125 23 -38 63 -110 87 -158
24 -49 59 -113 78 -142 18 -29 57 -99 85 -155 28 -57 63 -121 78 -144 16 -22
41 -70 56 -106 15 -36 49 -101 75 -145 26 -44 66 -120 90 -170 23 -49 55 -111
71 -137 16 -25 42 -78 58 -115 16 -38 49 -101 72 -139 23 -38 50 -90 61 -116
18 -46 73 -156 103 -208 8 -14 37 -74 65 -133 27 -59 59 -120 69 -135 10 -15
33 -64 51 -108 18 -45 49 -110 69 -145 21 -35 46 -86 56 -114 10 -27 42 -97
72 -155 29 -58 77 -158 108 -222 74 -160 161 -283 286 -408 402 -404 1001
-527 1530 -315 l92 37 1311 2 c1451 2 1352 -2 1559 66 229 76 457 239 606 432
294 382 352 903 148 1333 -149 316 -406 550 -731 665 -185 65 -247 73 -595 76
-173 1 -366 3 -428 3 l-112 1 34 68 c19 37 60 105 91 151 31 47 69 110 85 141
15 30 53 92 84 137 l57 82 712 4 c688 3 715 4 798 25 414 103 720 348 895 717
126 266 155 578 79 868 -111 427 -436 771 -855 905 -187 60 -226 62 -1097 62
l-790 0 -73 30 c-190 78 -327 104 -550 104 -142 0 -194 -4 -276 -22 -140 -30
-241 -66 -364 -127 -146 -74 -261 -159 -382 -283 -115 -119 -192 -227 -265
-377 -27 -55 -67 -126 -87 -159 -21 -32 -54 -93 -74 -135 -20 -42 -56 -107
-80 -144 -24 -38 -59 -101 -78 -141 -18 -40 -49 -97 -70 -127 -20 -30 -47 -76
-61 -103 l-24 -48 -41 68 c-22 38 -49 92 -60 119 -11 28 -42 93 -68 145 -27
52 -68 137 -90 189 -22 52 -49 110 -61 130 -12 20 -39 79 -60 131 -186 454
-565 763 -1059 866 -72 15 -366 28 -420 18z m320 -298 c262 -40 481 -154 663
-346 103 -109 169 -212 229 -358 22 -53 52 -119 68 -147 16 -27 43 -86 61
-130 17 -44 58 -129 89 -190 32 -60 63 -128 70 -149 7 -21 31 -68 53 -104 22
-35 55 -99 72 -141 32 -79 213 -411 224 -411 3 0 38 60 76 132 39 73 88 160
110 193 21 33 59 100 82 149 24 49 60 112 80 140 20 28 51 84 70 124 18 41 54
106 80 146 25 39 60 103 78 142 18 39 50 98 71 130 20 32 66 115 100 184 74
147 133 228 242 331 496 475 1286 406 1700 -147 211 -282 276 -666 171 -1010
-30 -101 -110 -258 -174 -343 -31 -40 -62 -89 -70 -108 -12 -28 -54 -94 -138
-218 -8 -11 -35 -58 -62 -105 -26 -47 -65 -107 -85 -135 -21 -27 -52 -79 -70
-115 -18 -36 -56 -99 -85 -141 -29 -41 -71 -111 -93 -155 -22 -43 -61 -107
-86 -142 -26 -35 -58 -88 -72 -119 -13 -31 -49 -93 -78 -137 -30 -45 -72 -115
-93 -156 -21 -41 -56 -101 -78 -134 -22 -32 -65 -106 -95 -165 -30 -58 -67
-122 -81 -141 -15 -19 -48 -78 -74 -130 -26 -52 -64 -120 -85 -150 -20 -30
-53 -89 -73 -130 -19 -41 -53 -102 -74 -135 -22 -33 -60 -105 -86 -159 -26
-54 -63 -121 -83 -149 -20 -27 -42 -68 -50 -91 -40 -111 -143 -265 -249 -370
-286 -283 -695 -394 -1085 -296 -360 91 -649 355 -785 715 -13 37 -33 78 -44
93 -26 38 -76 140 -91 187 -7 22 -32 74 -55 115 -24 41 -58 110 -75 154 -17
43 -48 107 -70 143 -21 36 -53 99 -70 142 -18 42 -45 96 -60 121 -16 25 -43
77 -60 115 -17 39 -43 93 -57 120 -15 28 -57 109 -93 180 -37 72 -85 164 -108
205 -22 41 -49 95 -58 120 -10 25 -38 76 -63 114 -24 39 -59 104 -76 145 -18
42 -46 97 -63 122 -18 26 -51 86 -74 135 -23 49 -62 120 -86 157 -24 38 -60
103 -79 145 -20 43 -48 95 -63 117 -15 22 -50 85 -78 140 -27 55 -66 125 -86
155 -186 281 -233 662 -121 990 32 94 105 232 164 311 61 81 188 203 267 256
239 163 534 231 814 189z"/>
</g>
</svg>
