<svg version="1.1" id="Layer_1" xmlns="http://www.w3.org/2000/svg" x="0" y="0" viewBox="0 0 418.5 179.5" xml:space="preserve"><style>.st0{fill:#009f4c}</style><circle class="st0" cx="301.3" cy="28.1" r="7.5"/><circle class="st0" cx="301.3" cy="48.7" r="7.5"/><circle class="st0" cx="301.3" cy="69.2" r="7.5"/><circle class="st0" cx="301.3" cy="89.7" r="7.5"/><circle class="st0" cx="301.3" cy="130.9" r="7.5"/><circle class="st0" cx="301.3" cy="151.5" r="7.5"/><circle class="st0" cx="264.3" cy="48.6" r="7.5"/><circle class="st0" cx="264.3" cy="69.3" r="7.5"/><circle class="st0" cx="264.3" cy="89.7" r="7.5"/><circle class="st0" cx="264.3" cy="110.3" r="7.5"/><circle class="st0" cx="264.3" cy="130.8" r="7.5"/><circle class="st0" cx="283.3" cy="38.4" r="7.5"/><circle class="st0" cx="283.3" cy="59" r="7.5"/><circle class="st0" cx="283.3" cy="79.5" r="7.5"/><circle class="st0" cx="283.3" cy="100" r="7.5"/><circle class="st0" cx="283.3" cy="120.5" r="7.5"/><circle class="st0" cx="283.3" cy="141" r="7.5"/><circle class="st0" cx="411" cy="48.6" r="7.5"/><circle class="st0" cx="411" cy="69" r="7.5"/><circle class="st0" cx="411" cy="89.7" r="7.5"/><circle class="st0" cx="411" cy="110" r="7.5"/><circle class="st0" cx="411" cy="131" r="7.5"/><circle class="st0" cx="392.3" cy="38.4" r="7.5"/><circle class="st0" cx="392.3" cy="59" r="7.5"/><circle class="st0" cx="392.3" cy="79.5" r="7.5"/><circle class="st0" cx="392.3" cy="100" r="7.5"/><circle class="st0" cx="392.3" cy="120.5" r="7.5"/><circle class="st0" cx="392.3" cy="141" r="7.5"/><circle class="st0" cx="374.3" cy="28" r="7.5"/><circle class="st0" cx="374.3" cy="48.7" r="7.5"/><circle class="st0" cx="374.3" cy="69" r="7.5"/><circle class="st0" cx="374.3" cy="89.7" r="7.5"/><circle class="st0" cx="374.3" cy="110" r="7.5"/><circle class="st0" cx="374.3" cy="131" r="7.5"/><circle class="st0" cx="374.3" cy="151.5" r="7.5"/><circle cx="301.3" cy="110" r="7.5" fill="#da0f21"/><circle class="st0" cx="356.3" cy="18" r="7.5"/><circle class="st0" cx="356.3" cy="38" r="7.5"/><circle class="st0" cx="356.3" cy="59" r="7.5"/><circle class="st0" cx="356.3" cy="79" r="7.5"/><circle class="st0" cx="356.3" cy="100" r="7.5"/><circle class="st0" cx="356.3" cy="120.5" r="7.5"/><circle class="st0" cx="356.3" cy="141" r="7.5"/><circle class="st0" cx="356.3" cy="161.6" r="7.5"/><circle class="st0" cx="337.8" cy="7.5" r="7.5"/><circle class="st0" cx="337.8" cy="28" r="7.5"/><circle class="st0" cx="337.8" cy="48.6" r="7.5"/><circle class="st0" cx="337.8" cy="69" r="7.5"/><circle class="st0" cx="337.8" cy="90" r="7.5"/><circle class="st0" cx="337.8" cy="110.3" r="7.5"/><circle class="st0" cx="337.8" cy="131" r="7.5"/><circle class="st0" cx="337.8" cy="151.4" r="7.5"/><circle class="st0" cx="319.3" cy="17.7" r="7.5"/><circle class="st0" cx="319.3" cy="38.3" r="7.5"/><circle class="st0" cx="319.3" cy="58.8" r="7.5"/><circle class="st0" cx="319.3" cy="79.4" r="7.5"/><circle class="st0" cx="319.3" cy="100" r="7.5"/><circle class="st0" cx="319.3" cy="120.5" r="7.5"/><circle class="st0" cx="319.3" cy="141" r="7.5"/><circle class="st0" cx="319.3" cy="161.6" r="7.5"/><circle class="st0" cx="337.8" cy="172" r="7.5"/><path d="M42.6 111.4H7.5V91.8h31.8v-7.4H7.5V66.7h34.3v-7.2H.3v59.1h42.3v-7.2zm68.1 7.2V59.5h-10.6s-2.4 6-2.6 6.7l-14.1 42.6h-.2L69 66.2c-.2-.7-2.6-6.7-2.6-6.7H55.7v59.1H63v-35c0-1.7-.2-8.7-.2-14.2h.2l16.2 49.2h8l16.2-49.2h.2c0 5.6-.2 49.2-.2 49.2h7.3zM132 66.1h14.9c9 0 12.7 3.2 12.7 8.7 0 7.3-5 9.4-12.7 9.4H132V66.1zm-7.3 52.5h25.2c13.2 0 19.5-7.8 19.5-17.3 0-10.2-6.1-13-10-14.6 6.6-3.1 7.1-8.5 7.1-12.4 0-8.2-4.9-14.8-16-14.8h-25.8v59.1zM132 91h16.1c6.6 0 14.2 1.7 14.2 10.1 0 6.6-4.5 10.9-12.9 10.9H132V91zm56.9-31.5h-7.8v59.1H220v-7.4h-31.1V59.5z"/></svg>