<svg version="1.1" id="Layer_1" xmlns="http://www.w3.org/2000/svg" x="0" y="0" viewBox="0 0 35.3 17" xml:space="preserve"><style>.st0{fill:#63b155}</style><circle class="st0" cx="32.2" cy="11.6" r=".8"/><circle class="st0" cx="30.4" cy="12.6" r=".8"/><circle class="st0" cx="32.2" cy="9.5" r=".8"/><circle class="st0" cx="30.4" cy="10.5" r=".8"/><circle class="st0" cx="32.2" cy="7.5" r=".8"/><circle class="st0" cx="30.4" cy="8.5" r=".8"/><circle class="st0" cx="32.2" cy="5.4" r=".8"/><circle class="st0" cx="30.4" cy="6.4" r=".8"/><circle class="st0" cx="30.4" cy="4.4" r=".8"/><circle class="st0" cx="28.5" cy="13.7" r=".8"/><circle class="st0" cx="28.5" cy="11.6" r=".8"/><circle class="st0" cx="26.7" cy="12.6" r=".8"/><circle class="st0" cx="26.7" cy="14.7" r=".8"/><circle class="st0" cx="28.5" cy="9.5" r=".8"/><circle class="st0" cx="26.7" cy="10.5" r=".8"/><circle class="st0" cx="28.5" cy="7.5" r=".8"/><circle class="st0" cx="26.7" cy="8.5" r=".8"/><circle class="st0" cx="28.5" cy="5.4" r=".8"/><circle class="st0" cx="26.7" cy="6.4" r=".8"/><circle class="st0" cx="28.5" cy="3.4" r=".8"/><circle class="st0" cx="26.7" cy="4.4" r=".8"/><circle class="st0" cx="26.7" cy="2.4" r=".8"/><circle class="st0" cx="21.3" cy="11.5" r=".8"/><circle class="st0" cx="21.3" cy="9.5" r=".8"/><circle class="st0" cx="21.3" cy="7.4" r=".8"/><circle class="st0" cx="21.3" cy="5.4" r=".8"/><circle class="st0" cx="24.9" cy="13.7" r=".8"/><circle class="st0" cx="24.9" cy="11.6" r=".8"/><circle class="st0" cx="23.1" cy="12.6" r=".8"/><circle class="st0" cx="24.9" cy="9.5" r=".8"/><circle cx="23.1" cy="10.5" r=".8" fill="#e11b2d"/><circle class="st0" cx="24.9" cy="7.5" r=".8"/><circle class="st0" cx="23.1" cy="8.5" r=".8"/><circle class="st0" cx="24.9" cy="5.4" r=".8"/><circle class="st0" cx="23.1" cy="6.4" r=".8"/><circle class="st0" cx="24.9" cy="3.4" r=".8"/><circle class="st0" cx="23.1" cy="4.4" r=".8"/><path d="M.3 6.2h3.4v.7H1.1v1.2h2.4v.7H1.1v1.4h2.6v.7H.3V6.2zM4.4 6.2h1.2l1.3 3.7 1.3-3.7h1.1v4.7h-.8V7.2l-1.3 3.6h-.7L5.2 7.2v3.6h-.8V6.2zM10.2 6.2h2.3c.4 0 .8.1 1 .3.3.2.4.5.4.9 0 .2-.1.4-.2.6-.1.2-.3.3-.5.4.3.1.5.2.7.4.1.2.2.4.2.7 0 .2 0 .4-.1.5-.1.2-.2.3-.3.4-.1.1-.3.2-.5.3-.2.1-.5.1-.8.1h-2.1V6.2zm.9 1.9h1.3c.2 0 .4-.1.5-.2.1-.1.2-.3.2-.5s-.1-.4-.2-.5c-.1-.1-.3-.1-.5-.1h-1.3v1.3zm0 2.1h1.4c.2 0 .4-.1.6-.2.1-.1.2-.3.2-.5s-.1-.4-.2-.5c-.1-.1-.3-.2-.6-.2h-1.4v1.4zM14.9 6.2h.8v4h2.4v.7h-3.2V6.2z"/></svg>