<svg version="1.1" id="Layer_1" xmlns="http://www.w3.org/2000/svg" x="0" y="0" viewBox="0 0 35.1 17" xml:space="preserve"><style>.st0{fill:#63b155}</style><circle class="st0" cx="26.6" cy="11.4" r="1.1"/><circle class="st0" cx="26.6" cy="14.3" r="1.1"/><circle class="st0" cx="26.6" cy="8.4" r="1.1"/><circle class="st0" cx="26.6" cy="5.6" r="1.1"/><circle class="st0" cx="26.6" cy="2.6" r="1.1"/><circle class="st0" cx="29.2" cy="13" r="1.1"/><circle class="st0" cx="29.2" cy="10" r="1.1"/><circle class="st0" cx="29.2" cy="7.1" r="1.1"/><circle class="st0" cx="29.2" cy="4.2" r="1.1"/><circle class="st0" cx="31.8" cy="11.4" r="1.1"/><circle class="st0" cx="31.8" cy="8.6" r="1.1"/><circle class="st0" cx="31.8" cy="5.6" r="1.1"/><circle class="st0" cx="21.4" cy="11.4" r="1.1"/><circle class="st0" cx="21.4" cy="8.4" r="1.1"/><circle class="st0" cx="21.4" cy="5.6" r="1.1"/><circle class="st0" cx="24" cy="13" r="1.1"/><circle cx="24" cy="10" r="1.1" fill="#e11b2d"/><circle class="st0" cx="24" cy="7.1" r="1.1"/><circle class="st0" cx="24" cy="4.2" r="1.1"/><path d="M.2 6h3.4v.7H1V8h2.4v.7H1V10h2.6v.7H.2V6zM4.3 6h1.2l1.3 3.7L8 6h1.1v4.7h-.7V7.1l-1.3 3.6h-.7L5.1 7.1v3.6h-.8V6zM10.2 6h2.3c.4 0 .8.1 1 .3.3.2.4.5.4.9 0 .2-.1.4-.2.6-.1.2-.3.3-.5.4.3.1.5.2.7.4.1.2.1.5.1.8 0 .2 0 .4-.1.5-.1.2-.2.3-.3.4-.1.1-.3.2-.5.3-.2.1-.5.1-.8.1h-2.1V6zm.8 2h1.3c.2 0 .4-.1.5-.2.1-.1.2-.3.2-.5s-.1-.4-.2-.5c-.1-.1-.3-.1-.5-.1H11V8zm0 2h1.4c.2 0 .4-.1.6-.2.1-.1.2-.3.2-.5s-.1-.4-.2-.5c-.1-.1-.3-.2-.6-.2H11V10zM14.8 6h.8v4H18v.7h-3.2V6z"/></svg>