<svg version="1.1" id="Layer_1" xmlns="http://www.w3.org/2000/svg" x="0" y="0" viewBox="0 0 418.5 179.5" xml:space="preserve"><style>.st0{fill:#6dab49}</style><path d="M0 59.2h43.2v9.1H10.5V84h30.2v8.6H10.5v17.6h33.3v9.1H0V59.2zm52.8 0h14.8l16.6 47h.2l16.1-47H115v60h-10V72.9h-.2l-16.6 46.3h-8.7L62.9 72.9h-.2v46.3h-10v-60zm74.8 0h29.2c5.4 0 9.7 1.2 12.9 3.7 3.2 2.5 4.9 6.2 4.9 11.2 0 3-.7 5.6-2.2 7.8-1.5 2.2-3.6 3.8-6.3 5v.1c3.7.8 6.5 2.5 8.4 5.3 1.9 2.7 2.9 6.1 2.9 10.2 0 2.4-.4 4.6-1.3 6.6-.8 2-2.2 3.8-3.9 5.3-1.8 1.5-4.1 2.7-6.9 3.5-2.8.9-6.1 1.3-10 1.3h-27.6v-60zm10.5 25.1h17.1c2.5 0 4.6-.7 6.3-2.1 1.7-1.4 2.5-3.5 2.5-6.2 0-3-.8-5.2-2.3-6.4-1.5-1.2-3.7-1.8-6.6-1.8H138v16.5zm0 26.3h18.6c3.2 0 5.7-.8 7.4-2.5 1.8-1.7 2.6-4 2.6-7s-.9-5.3-2.6-6.8c-1.8-1.6-4.2-2.4-7.4-2.4h-18.6v18.7zm48.7-51.4h10.5v50.9h30.5v9.1h-41v-60z"/><circle class="st0" cx="301.3" cy="28.1" r="7.5"/><circle class="st0" cx="301.3" cy="48.7" r="7.5"/><circle class="st0" cx="301.3" cy="69.2" r="7.5"/><circle class="st0" cx="301.3" cy="89.7" r="7.5"/><circle class="st0" cx="301.3" cy="130.9" r="7.5"/><circle class="st0" cx="301.3" cy="151.5" r="7.5"/><circle class="st0" cx="264.3" cy="48.6" r="7.5"/><circle class="st0" cx="264.3" cy="69.3" r="7.5"/><circle class="st0" cx="264.3" cy="89.7" r="7.5"/><circle class="st0" cx="264.3" cy="110.3" r="7.5"/><circle class="st0" cx="264.3" cy="130.8" r="7.5"/><circle class="st0" cx="283.3" cy="38.4" r="7.5"/><circle class="st0" cx="283.3" cy="59" r="7.5"/><circle class="st0" cx="283.3" cy="79.5" r="7.5"/><circle class="st0" cx="283.3" cy="100" r="7.5"/><circle class="st0" cx="283.3" cy="120.5" r="7.5"/><circle class="st0" cx="283.3" cy="141" r="7.5"/><circle class="st0" cx="411" cy="48.6" r="7.5"/><circle class="st0" cx="411" cy="69" r="7.5"/><circle class="st0" cx="411" cy="89.7" r="7.5"/><circle class="st0" cx="411" cy="110" r="7.5"/><circle class="st0" cx="411" cy="131" r="7.5"/><circle class="st0" cx="392.3" cy="38.4" r="7.5"/><circle class="st0" cx="392.3" cy="59" r="7.5"/><circle class="st0" cx="392.3" cy="79.5" r="7.5"/><circle class="st0" cx="392.3" cy="100" r="7.5"/><circle class="st0" cx="392.3" cy="120.5" r="7.5"/><circle class="st0" cx="392.3" cy="141" r="7.5"/><circle class="st0" cx="374.3" cy="28" r="7.5"/><circle class="st0" cx="374.3" cy="48.7" r="7.5"/><circle class="st0" cx="374.3" cy="69" r="7.5"/><circle class="st0" cx="374.3" cy="89.7" r="7.5"/><circle class="st0" cx="374.3" cy="110" r="7.5"/><circle class="st0" cx="374.3" cy="131" r="7.5"/><circle class="st0" cx="374.3" cy="151.5" r="7.5"/><circle cx="301.3" cy="110" r="7.5" fill="#da0f21"/><circle class="st0" cx="356.3" cy="18" r="7.5"/><circle class="st0" cx="356.3" cy="38" r="7.5"/><circle class="st0" cx="356.3" cy="59" r="7.5"/><circle class="st0" cx="356.3" cy="79" r="7.5"/><circle class="st0" cx="356.3" cy="100" r="7.5"/><circle class="st0" cx="356.3" cy="120.5" r="7.5"/><circle class="st0" cx="356.3" cy="141" r="7.5"/><circle class="st0" cx="356.3" cy="161.6" r="7.5"/><circle class="st0" cx="337.8" cy="7.5" r="7.5"/><circle class="st0" cx="337.8" cy="28" r="7.5"/><circle class="st0" cx="337.8" cy="48.6" r="7.5"/><circle class="st0" cx="337.8" cy="69" r="7.5"/><circle class="st0" cx="337.8" cy="90" r="7.5"/><circle class="st0" cx="337.8" cy="110.3" r="7.5"/><circle class="st0" cx="337.8" cy="131" r="7.5"/><circle class="st0" cx="337.8" cy="151.4" r="7.5"/><circle class="st0" cx="319.3" cy="17.7" r="7.5"/><circle class="st0" cx="319.3" cy="38.3" r="7.5"/><circle class="st0" cx="319.3" cy="58.8" r="7.5"/><circle class="st0" cx="319.3" cy="79.4" r="7.5"/><circle class="st0" cx="319.3" cy="100" r="7.5"/><circle class="st0" cx="319.3" cy="120.5" r="7.5"/><circle class="st0" cx="319.3" cy="141" r="7.5"/><circle class="st0" cx="319.3" cy="161.6" r="7.5"/><circle class="st0" cx="337.8" cy="172" r="7.5"/></svg>