<svg id="Ebene_1" data-name="Ebene 1" xmlns="http://www.w3.org/2000/svg" viewBox="0 0 152.77 57.33"><defs><style>.cls-2{fill:#009f4d}</style></defs><path d="M17.4 37.87H2.96v-8.08h13.07v-3.05H2.96v-7.28h14.08v-2.93H0V40.8h17.4v-2.93zm27.95 2.93V16.53H41s-.94 2.47-1 2.74l-5.86 17.51h-.07l-5.85-17.51c-.09-.29-1.08-2.74-1.08-2.74h-4.35V40.8h3V26.45c0-.72-.07-3.59-.07-5.84h.07l6.65 20.19h3.27l6.66-20.23h.07c0 2.29-.07 20.23-.07 20.23z"/><path d="M54.13 19.24h6.12c3.69 0 5.2 1.3 5.2 3.59 0 3-2.06 3.84-5.23 3.84h-6.09zm-3 21.56h10.35c5.43 0 8-3.19 8-7.12 0-4.2-2.49-5.32-4.09-6 2.7-1.26 2.93-3.52 2.93-5.12 0-3.35-2-6.06-6.58-6.06H51.16zm3-11.32h6.63c2.7 0 5.85.69 5.85 4.13 0 2.74-1.85 4.48-5.3 4.48h-7.18z" fill-rule="evenodd"/><path d="M77.48 16.53h-3.2V40.8h15.97v-3.05H77.48V16.53z"/><path class="cls-2" d="M109.43 16.53a4.27 4.27 0 01-4.37 4.36 4.37 4.37 0 11.11-8.74 4.3 4.3 0 014.26 4.38m0 12.14a4.27 4.27 0 01-4.37 4.33 4.38 4.38 0 11.11-8.75 4.31 4.31 0 014.26 4.38m0 12.19a4.27 4.27 0 01-4.37 4.36 4.37 4.37 0 11.11-8.74 4.3 4.3 0 014.26 4.38m21.64-24.29a4.27 4.27 0 01-4.37 4.36 4.37 4.37 0 114.37-4.36m0-12.15a4.28 4.28 0 01-4.37 4.37 4.34 4.34 0 01-4.36-4.61A4.36 4.36 0 01126.81 0a4.3 4.3 0 014.26 4.38m0 48.62a4.27 4.27 0 01-4.37 4.37 4.38 4.38 0 114.37-4.37m0-24.33A4.27 4.27 0 01126.7 33a4.38 4.38 0 114.37-4.37m-8.7 12.22a4.38 4.38 0 114.25 4.4 4.31 4.31 0 01-4.25-4.4m30.39-24.32a4.27 4.27 0 01-4.37 4.36 4.37 4.37 0 11.11-8.74 4.3 4.3 0 014.26 4.38m0 12.14a4.27 4.27 0 01-4.37 4.33 4.38 4.38 0 11.11-8.75 4.31 4.31 0 014.26 4.38m0 12.19a4.27 4.27 0 01-4.37 4.36 4.37 4.37 0 11.11-8.74 4.3 4.3 0 014.26 4.38m-10.87-30.38a4.28 4.28 0 01-4.36 4.37 4.38 4.38 0 11.1-8.75 4.3 4.3 0 014.26 4.38m0 12.15a4.26 4.26 0 01-4.36 4.41 4.38 4.38 0 114.36-4.36m0 12.09a4.28 4.28 0 01-4.36 4.37 4.38 4.38 0 114.36-4.37m0 12.37a4.26 4.26 0 01-4.36 4.36 4.37 4.37 0 11.1-8.74 4.3 4.3 0 014.26 4.38m-21.53-36.66a4.28 4.28 0 01-4.36 4.37 4.38 4.38 0 11.11-8.75 4.3 4.3 0 014.26 4.38m-.01 12.15A4.27 4.27 0 01116 27a4.38 4.38 0 114.37-4.36"/><path d="M120.36 34.73A4.28 4.28 0 01116 39.1a4.38 4.38 0 114.37-4.37" fill="#e40046"/><path class="cls-2" d="M120.36 47.1a4.27 4.27 0 01-4.36 4.36 4.37 4.37 0 114.37-4.36"/></svg>