<svg xmlns="http://www.w3.org/2000/svg" version="1.1" xmlns:xlink="http://www.w3.org/1999/xlink" xmlns:svgjs="http://svgjs.com/svgjs" viewBox="0 0 140 140" width="140" height="140"><g transform="matrix(5.833333333333333,0,0,5.833333333333333,0,0)"><path d="M23.421,11.765,13.768.8A2.641,2.641,0,0,0,12,0a2.645,2.645,0,0,0-1.768.8L.579,11.765A1.413,1.413,0,1,0,2.7,13.632l7.45-8.466a.25.25,0,0,1,.437.166V22.587a1.413,1.413,0,1,0,2.826,0V5.332a.25.25,0,0,1,.438-.165L21.3,13.632a1.413,1.413,0,1,0,2.121-1.867Z" fill="#000000" stroke="none" stroke-linecap="round" stroke-linejoin="round" stroke-width="0"></path></g></svg>