<?xml version="1.0" encoding="utf-8"?>
<!-- Generator: Adobe Illustrator 22.1.0, SVG Export Plug-In . SVG Version: 6.00 Build 0)  -->
<svg version="1.1" id="Layer_1" xmlns="http://www.w3.org/2000/svg" xmlns:xlink="http://www.w3.org/1999/xlink" x="0px" y="0px"
	 viewBox="0 0 35.3 17" style="enable-background:new 0 0 35.3 17;" xml:space="preserve">
<style type="text/css">
	.st0{fill:#3E3E3E;}
	.st1{fill:#FFFFFF;stroke:#000000;stroke-width:0.6607;stroke-miterlimit:10;}
</style>
<g>
	<path class="st0" d="M18.4,1.7c-0.1,0-0.2,0-0.4,0c0,0-0.1,0-0.1,0c-0.1,0-0.2,0-0.3,0c0,0-0.1,0-0.1,0c-0.1,0-0.2,0-0.3,0
		c0,0-0.1,0-0.1,0c-0.1,0-0.2,0-0.3,0c0,0-0.1,0-0.1,0c-0.1,0-0.2,0-0.3,0c-0.1,0-0.1,0-0.2,0c-0.1,0-0.2,0-0.3,0
		c-0.1,0-0.1,0-0.2,0c-0.1,0-0.2,0-0.3,0c-0.1,0-0.1,0-0.2,0c-0.1,0-0.2,0-0.3,0c-0.1,0-0.1,0-0.2,0c-0.1,0-0.2,0-0.3,0
		c-0.1,0-0.1,0-0.2,0c-0.1,0-0.2,0-0.2,0c-0.1,0-0.1,0-0.2,0c-0.1,0-0.2,0-0.2,0c-0.1,0-0.2,0-0.2,0c-1.7,0-3,1.4-3,3
		c0,1.7,1.4,3,3,3c0.1,0,0.2,0,0.2,0c0.1,0,0.1,0,0.2,0c0.1,0,0.2,0,0.2,0c0.1,0,0.1,0,0.2,0c0.1,0,0.2,0,0.2,0c0.1,0,0.1,0,0.2,0
		c0.1,0,0.2,0,0.3,0c0.1,0,0.1,0,0.2,0c0.1,0,0.2,0,0.3,0c0.1,0,0.1,0,0.2,0c0.1,0,0.2,0,0.3,0c0.1,0,0.1,0,0.2,0c0.1,0,0.2,0,0.3,0
		c0,0,0.1,0,0.1,0c0.1,0,0.2,0,0.3,0c0,0,0.1,0,0.1,0c0.1,0,0.2,0,0.3,0c0,0,0.1,0,0.1,0c0.1,0,0.2,0,0.3,0c0,0,0.1,0,0.1,0
		c0.1,0,0.2,0,0.3,0c0,0,0.1,0,0.1,0c1.7,0.1,3.1-1.2,3.2-2.9C21.4,3.2,20.1,1.8,18.4,1.7z"/>
	<path class="st0" d="M17.5,9.5c-0.5-0.3-1.1-0.4-1.7-0.3c-0.2,0-0.4,0-0.7,0c-0.2,0-1.1,0-1.3,0c-0.2,0-0.4,0-0.7,0
		c-0.2,0-0.4,0-0.7,0c-0.2,0-0.4,0-0.7,0c-0.2,0-0.4,0-0.7,0c-0.2,0-0.4,0-0.7,0c-0.2,0-0.4,0-0.7,0c-0.2,0-0.4,0-0.7,0
		c-1.2-0.1-2.5,0.5-3,1.7c-0.7,1.5-0.1,3.3,1.4,4.1c0.5,0.3,1.1,0.4,1.7,0.3c0.2,0,0.4,0,0.7,0c0.2,0,0.4,0,0.7,0c0.2,0,0.4,0,0.7,0
		c0.2,0,3.7,0,4,0c0.2,0,0.4,0,0.7,0c1.2,0.1,2.5-0.5,3-1.7C19.6,12.1,19,10.3,17.5,9.5z"/>
</g>
<g>
	<circle cx="13.3" cy="4.8" r="3"/>
</g>
<path class="st1" d="M12.5,12c0.2-0.2,0.3-0.4,0.4-0.7c0.2-0.2,0.3-0.4,0.4-0.7c0.2-0.2,0.3-0.4,0.4-0.7c0.2-0.2,0.3-0.4,0.4-0.7
	c0.2-0.2,0.3-0.4,0.4-0.7c0.2-0.2,0.3-0.4,0.4-0.7c0.2-0.2,0.3-0.4,0.4-0.7c0.2-0.2,0.3-0.4,0.4-0.6c0.4-0.5,0.7-1.2,0.7-1.9
	c0-1.7-1.4-3-3-3c-1.3,0-2.4,0.8-2.8,1.9c-0.1,0.2-0.3,0.4-0.4,0.7C9.9,4.6,9.8,4.8,9.7,5C9.5,5.2,9.4,5.4,9.3,5.7
	C9.2,5.8,9.1,5.9,9.1,6.1C9,6,9,5.9,8.9,5.8C8.8,5.6,8.7,5.4,8.6,5.2C8.5,4.9,8.4,4.7,8.3,4.5C8.2,4.3,8.1,4,8,3.8
	C7.9,3.5,7.7,3.2,7.5,2.9c-1-1.3-2.9-1.6-4.2-0.6c-1.3,1-1.6,2.9-0.6,4.2C2.7,6.8,2.8,7,3,7.2c0.1,0.2,0.2,0.4,0.4,0.7
	c0.1,0.2,0.2,0.4,0.4,0.7C3.8,8.7,3.9,9,4,9.2c0.1,0.2,0.2,0.5,0.3,0.7c0.1,0.2,0.2,0.5,0.3,0.7c0.1,0.2,0.2,0.5,0.3,0.7
	c0.1,0.2,0.2,0.5,0.3,0.7c0.1,0.2,0.2,0.5,0.3,0.7c0.1,0.2,0.2,0.5,0.3,0.7c0.2,0.7,0.8,1.4,1.5,1.8c1.5,0.7,3.3,0.1,4.1-1.4
	c0-0.1,0.1-0.2,0.1-0.3c0.1-0.2,0.2-0.3,0.3-0.5c0,0,0-0.1,0.1-0.1C12.2,12.4,12.4,12.2,12.5,12C12.5,12,12.5,12,12.5,12z"/>
</svg>
